<svg width="1104" height="314" fill="none" xmlns="http://www.w3.org/2000/svg"><path d="M408.036 130.669a38.443 38.443 0 0 1-8.578 5.695 56.466 56.466 0 0 1-9.351 3.446c-3.141.843-6.164 1.406-9.071 1.687-2.859.328-5.39.492-7.593.492-6.797 0-13.125-1.195-18.985-3.586-5.859-2.437-10.969-5.859-15.328-10.265-4.312-4.407-7.711-9.703-10.195-15.891-2.438-6.234-3.656-13.172-3.656-20.812 0-5.72.703-11.063 2.109-16.032 1.406-4.968 3.375-9.492 5.906-13.57a51.848 51.848 0 0 1 9-10.898 52.482 52.482 0 0 1 11.461-8.016 56.653 56.653 0 0 1 13.289-4.992 59.205 59.205 0 0 1 14.414-1.758c3.235 0 7.125.305 11.672.914 4.547.563 9.422 1.617 14.625 3.164l-2.391 12.234-1.406.704c-5.156-2.344-9.961-3.938-14.414-4.782-4.406-.89-8.156-1.336-11.25-1.336-5.625 0-10.805 1.102-15.539 3.305-4.734 2.156-8.812 5.133-12.234 8.93-3.422 3.75-6.094 8.133-8.016 13.148-1.922 5.016-2.883 10.36-2.883 16.031a50.11 50.11 0 0 0 2.532 15.821c1.734 5.062 4.265 9.562 7.593 13.5 3.328 3.89 7.43 7.031 12.305 9.422 4.875 2.343 10.477 3.515 16.805 3.515 1.828 0 3.843-.117 6.047-.351 2.203-.235 4.546-.657 7.031-1.266 2.484-.656 5.086-1.5 7.804-2.531 2.719-1.078 5.485-2.461 8.297-4.149v8.227zm59.521-1.195a473.067 473.067 0 0 0-4.289 3.656c-1.64 1.406-3.515 2.766-5.625 4.078-2.062 1.313-4.336 2.438-6.82 3.375-2.438.938-5.039 1.406-7.805 1.406-2.484 0-4.922-.445-7.312-1.336a18.224 18.224 0 0 1-6.258-3.797c-1.828-1.734-3.305-3.867-4.43-6.398-1.078-2.531-1.617-5.437-1.617-8.719 0-2.015.234-4.054.703-6.117a20.492 20.492 0 0 1 2.531-5.906c1.172-1.922 2.696-3.703 4.571-5.344 1.922-1.687 4.265-3.141 7.031-4.359 2.812-1.266 6.117-2.25 9.914-2.953 3.797-.704 8.156-1.055 13.078-1.055h6.328v-6.469c0-2.156-.375-4.101-1.125-5.836-.75-1.734-1.804-3.21-3.164-4.43-1.312-1.265-2.906-2.226-4.781-2.882-1.828-.703-3.867-1.055-6.117-1.055-1.688 0-3.492.188-5.414.563a38.642 38.642 0 0 0-5.696 1.617 43.5 43.5 0 0 0-5.414 2.46c-1.734.938-3.257 1.97-4.57 3.094l-1.266-.703-2.812-10.265c2.719-1.5 5.344-2.72 7.875-3.657 2.531-.984 4.945-1.757 7.242-2.32 2.344-.562 4.57-.937 6.68-1.125a54.814 54.814 0 0 1 6.047-.352c8.765 0 15.257 1.829 19.476 5.485 4.266 3.61 6.399 9.047 6.399 16.312v36.704c0 .609.047 1.359.14 2.25.094.843.305 1.664.633 2.46a6.05 6.05 0 0 0 1.547 2.04c.703.562 1.641.843 2.812.843.657 0 1.524-.093 2.602-.281a14.717 14.717 0 0 0 3.234-1.125v7.453c-2.25 1.547-4.523 2.813-6.82 3.797-2.25.938-4.43 1.406-6.539 1.406-1.922 0-3.516-.398-4.781-1.195a10.305 10.305 0 0 1-3.094-2.953 16.564 16.564 0 0 1-1.898-4.008 61.292 61.292 0 0 1-1.196-4.359zm0-25.313h-5.343c-5.485 0-9.868.399-13.149 1.195-3.234.75-5.719 1.782-7.453 3.094-1.688 1.266-2.813 2.742-3.375 4.43a17.928 17.928 0 0 0-.773 5.273c0 1.969.281 3.727.843 5.274.563 1.547 1.336 2.883 2.321 4.008a10.289 10.289 0 0 0 3.656 2.461c1.406.562 2.93.843 4.57.843 1.266 0 2.555-.14 3.867-.422 1.36-.328 2.789-.867 4.289-1.617 1.547-.797 3.164-1.851 4.852-3.164 1.734-1.312 3.633-3 5.695-5.062v-16.313zm39.201-38.11h10.406l2.109 12.938c1.641-1.547 3.516-3.164 5.625-4.851a54.468 54.468 0 0 1 6.821-4.64 42.174 42.174 0 0 1 7.875-3.446 26.322 26.322 0 0 1 8.508-1.407c3.421 0 6.492.657 9.211 1.97a19.812 19.812 0 0 1 7.031 5.554c1.969 2.344 3.469 5.156 4.5 8.437 1.078 3.235 1.617 6.774 1.617 10.618v49.359h-13.359V92.489c0-2.719-.399-5.11-1.196-7.172-.75-2.109-1.804-3.843-3.164-5.203a13.002 13.002 0 0 0-4.851-3.164c-1.875-.703-3.914-1.055-6.118-1.055-3.89 0-7.57 1.032-11.039 3.094-3.468 2.063-7.007 4.781-10.617 8.156v53.438h-13.359V66.052zm92.849 10.688H584.56l1.125-6.89c3.656-.75 6.586-1.688 8.789-2.813 2.203-1.172 4.008-2.625 5.414-4.36 1.453-1.734 2.649-3.82 3.586-6.257a275.648 275.648 0 0 0 3.305-8.86h6.187v18.493h27l-2.812 10.687h-24.188v41.625c0 2.25.328 4.172.985 5.766.703 1.547 1.664 2.812 2.882 3.797 1.219.984 2.696 1.711 4.43 2.179 1.735.422 3.656.633 5.766.633 2.156 0 4.289-.187 6.398-.562a40.31 40.31 0 0 0 6.117-1.688v7.594a37.952 37.952 0 0 1-9.351 4.43 33.88 33.88 0 0 1-9.914 1.476c-3.141 0-5.977-.445-8.508-1.336-2.531-.89-4.711-2.179-6.539-3.867-1.781-1.687-3.164-3.773-4.149-6.258-.984-2.531-1.476-5.414-1.476-8.648V76.74zm116.052 57.516c-1.781 1.266-3.844 2.391-6.187 3.375a58.718 58.718 0 0 1-7.172 2.391 59.281 59.281 0 0 1-7.524 1.476c-2.484.328-4.804.492-6.961.492-4.781 0-9.328-.797-13.64-2.39-4.313-1.594-8.086-3.938-11.321-7.032-3.234-3.093-5.812-6.914-7.734-11.461-1.922-4.593-2.883-9.867-2.883-15.82 0-6.14 1.008-11.719 3.024-16.734 2.062-5.016 4.804-9.282 8.226-12.797 3.422-3.563 7.36-6.305 11.813-8.227a35.618 35.618 0 0 1 14.133-2.883c3.984 0 7.687.68 11.109 2.04a23.871 23.871 0 0 1 9 5.976c2.578 2.672 4.594 6.024 6.047 10.055 1.453 3.984 2.179 8.648 2.179 13.992a63.02 63.02 0 0 1-.14 3.867 44.126 44.126 0 0 1-.563 4.711h-50.906c0 4.031.703 7.641 2.109 10.828 1.454 3.141 3.469 5.813 6.047 8.016 2.625 2.156 5.743 3.797 9.352 4.922 3.609 1.125 7.594 1.687 11.953 1.687 1.078 0 2.391-.047 3.938-.14a53.981 53.981 0 0 0 10.546-1.758 33.332 33.332 0 0 0 5.555-2.18v7.594zm-10.547-37.266c0-3.515-.492-6.61-1.476-9.281-.985-2.719-2.321-4.992-4.008-6.82-1.688-1.828-3.656-3.211-5.906-4.149-2.204-.937-4.571-1.406-7.102-1.406-2.812 0-5.461.586-7.945 1.758a20.78 20.78 0 0 0-6.539 4.64c-1.828 1.97-3.282 4.266-4.36 6.891-1.078 2.625-1.617 5.414-1.617 8.367h38.953zm32.029-30.937h10.406l2.11 22.36a279.917 279.917 0 0 1 1.898-3.587c.703-1.265 1.383-2.484 2.039-3.656a148.451 148.451 0 0 1 2.039-3.305 90.06 90.06 0 0 1 1.758-2.672 31.748 31.748 0 0 1 3.445-4.078 23.826 23.826 0 0 1 4.219-3.375 18.567 18.567 0 0 1 4.781-2.25c1.688-.562 3.492-.844 5.414-.844 1.36 0 2.649.165 3.868.493 1.218.28 2.226.773 3.023 1.476l-1.406 12.516a11.909 11.909 0 0 0-2.532-.422 20.43 20.43 0 0 0-2.39-.14c-3.328 0-6.235.538-8.719 1.617a23.031 23.031 0 0 0-6.609 4.43c-1.922 1.827-3.68 3.984-5.274 6.468a192.693 192.693 0 0 0-4.711 8.016v41.484h-13.359V66.052zm60.154-38.11h13.359v50.203a106.112 106.112 0 0 1 6.399-5.414 44.846 44.846 0 0 1 6.468-4.218 33.286 33.286 0 0 1 6.891-2.813c2.344-.703 4.828-1.055 7.453-1.055 4.594 0 8.695 1.008 12.305 3.024a27.827 27.827 0 0 1 9.211 7.945c2.531 3.328 4.453 7.172 5.765 11.531 1.36 4.313 2.039 8.813 2.039 13.501 0 5.718-.984 11.085-2.953 16.101-1.969 5.016-4.851 9.399-8.648 13.149-3.797 3.703-8.461 6.656-13.992 8.859-5.485 2.156-11.743 3.234-18.774 3.234-3.703 0-7.758-.351-12.164-1.054-4.359-.704-8.812-1.899-13.359-3.586V27.942zm13.359 99.704c2.813 1.265 5.625 2.203 8.438 2.812 2.859.563 5.531.844 8.015.844 4.313 0 8.086-.774 11.321-2.321 3.281-1.546 6-3.609 8.156-6.187 2.203-2.625 3.844-5.625 4.922-9 1.078-3.375 1.617-6.914 1.617-10.617 0-3.422-.469-6.75-1.406-9.985-.891-3.28-2.227-6.187-4.008-8.718-1.781-2.579-3.961-4.641-6.539-6.188-2.578-1.594-5.555-2.39-8.93-2.39-3 0-6.305.796-9.914 2.39-3.563 1.594-7.453 4.5-11.672 8.719v40.641zm75.201-61.594h13.359v47.25c0 2.578.352 4.945 1.055 7.101.75 2.11 1.758 3.938 3.023 5.485a13.768 13.768 0 0 0 4.641 3.586c1.828.843 3.844 1.265 6.047 1.265 1.922 0 3.797-.328 5.625-.984a27.86 27.86 0 0 0 5.343-2.531 33.63 33.63 0 0 0 4.852-3.657 53.436 53.436 0 0 0 4.289-4.359V66.052h13.359v74.531h-10.406l-2.25-12.797a214.36 214.36 0 0 1-5.554 4.922 57.28 57.28 0 0 1-6.329 4.57 37.253 37.253 0 0 1-7.031 3.375c-2.484.891-5.086 1.336-7.805 1.336-3.187 0-6.14-.633-8.859-1.898-2.672-1.266-5.016-3.047-7.031-5.344-1.969-2.344-3.516-5.133-4.641-8.367-1.125-3.281-1.687-6.891-1.687-10.828v-49.5zm84.903 0h10.407l2.109 22.36a268.083 268.083 0 0 1 1.899-3.587c.703-1.265 1.382-2.484 2.039-3.656a144.81 144.81 0 0 1 2.039-3.305 92.273 92.273 0 0 1 1.757-2.672 31.756 31.756 0 0 1 3.446-4.078 23.79 23.79 0 0 1 4.219-3.375 18.605 18.605 0 0 1 4.777-2.25c1.69-.562 3.5-.844 5.42-.844 1.36 0 2.65.165 3.87.493 1.21.28 2.22.773 3.02 1.476l-1.41 12.516c-.84-.234-1.69-.375-2.53-.422-.8-.094-1.59-.14-2.39-.14-3.33 0-6.23.538-8.72 1.617a23.054 23.054 0 0 0-6.608 4.43c-1.922 1.827-3.679 3.984-5.273 6.468a192.693 192.693 0 0 0-4.711 8.016v41.484h-13.36V66.052zm52.002 0h15.04l16.32 50.344 3.37 13.64h1.41l3.37-13.64 16.31-50.344h13.79l-41.91 112.219h-12.94l15.61-37.688h-2.53l-27.84-74.531zM330.2 286.452V183.444h60.399l-2.11 10.898h-44.507v32.906h39.656l-2.109 10.899h-37.547v48.305H330.2zm76.855-112.641h13.359v112.641h-13.359V173.811zm65.464 114.047c-5.532 0-10.454-.985-14.766-2.953-4.313-1.969-7.969-4.618-10.969-7.946-2.953-3.328-5.226-7.195-6.82-11.601-1.547-4.453-2.32-9.141-2.32-14.063 0-5.625.984-10.898 2.953-15.82 2.015-4.969 4.781-9.305 8.297-13.008 3.562-3.703 7.781-6.609 12.656-8.719 4.875-2.156 10.172-3.234 15.89-3.234 5.579 0 10.547 1.008 14.907 3.023 4.359 1.969 8.015 4.641 10.968 8.016 3 3.375 5.274 7.289 6.821 11.742 1.547 4.407 2.32 9.047 2.32 13.922 0 5.672-1.008 10.992-3.023 15.961-2.016 4.922-4.805 9.211-8.368 12.867-3.562 3.657-7.781 6.539-12.656 8.649-4.875 2.109-10.172 3.164-15.89 3.164zm2.953-10.688c3.422 0 6.515-.679 9.281-2.039a21.82 21.82 0 0 0 7.172-5.695c2.015-2.391 3.562-5.203 4.64-8.438 1.125-3.281 1.688-6.796 1.688-10.546 0-3.704-.539-7.29-1.617-10.758-1.078-3.516-2.649-6.633-4.711-9.352-2.016-2.765-4.5-4.969-7.453-6.609-2.953-1.688-6.282-2.531-9.985-2.531-3.422 0-6.539.703-9.351 2.109-2.766 1.359-5.157 3.258-7.172 5.695-1.969 2.391-3.516 5.227-4.641 8.508-1.078 3.281-1.617 6.797-1.617 10.547 0 3.703.539 7.312 1.617 10.828 1.078 3.469 2.625 6.563 4.641 9.281 2.062 2.719 4.547 4.899 7.453 6.539 2.953 1.641 6.305 2.461 10.055 2.461zm60.823-65.25l13.64 52.172 2.11 11.813h1.406l2.391-11.672 14.906-50.063h15.258l14.765 49.922 2.532 11.813h1.406l2.25-11.672 13.781-52.313h13.5l-23.625 74.532H595.92l-14.203-46.125-3.235-12.938h-1.406l-3.234 12.938-14.485 46.125h-14.625l-23.203-74.532h14.766zm169.245 68.203c-1.781 1.266-3.844 2.391-6.188 3.375a58.321 58.321 0 0 1-7.172 2.391 59.445 59.445 0 0 1-7.523 1.477c-2.484.328-4.805.492-6.961.492-4.781 0-9.328-.797-13.641-2.391-4.312-1.594-8.086-3.937-11.32-7.031s-5.812-6.914-7.734-11.461c-1.922-4.594-2.883-9.867-2.883-15.82 0-6.141 1.008-11.719 3.023-16.735 2.063-5.015 4.805-9.281 8.227-12.797 3.422-3.562 7.359-6.304 11.812-8.226a35.616 35.616 0 0 1 14.133-2.883c3.985 0 7.688.68 11.11 2.039a23.891 23.891 0 0 1 9 5.977c2.578 2.672 4.593 6.023 6.046 10.054 1.454 3.985 2.18 8.649 2.18 13.993 0 1.078-.047 2.367-.14 3.867-.094 1.5-.282 3.07-.563 4.711H656.04c0 4.031.703 7.64 2.109 10.828 1.453 3.14 3.469 5.812 6.047 8.015 2.625 2.157 5.742 3.797 9.352 4.922 3.609 1.125 7.593 1.688 11.953 1.688 1.078 0 2.39-.047 3.937-.141a52.645 52.645 0 0 0 4.992-.562 54.01 54.01 0 0 0 5.555-1.196 33.328 33.328 0 0 0 5.555-2.179v7.593zm-10.547-37.265c0-3.516-.492-6.61-1.477-9.281-.984-2.719-2.32-4.993-4.007-6.821a16.702 16.702 0 0 0-5.907-4.148c-2.203-.938-4.57-1.406-7.101-1.406-2.813 0-5.461.585-7.946 1.757a20.789 20.789 0 0 0-6.539 4.641c-1.828 1.969-3.281 4.266-4.359 6.891-1.078 2.625-1.617 5.414-1.617 8.367h38.953zm30.589-30.938h10.406l2.109 22.36c.61-1.172 1.242-2.368 1.899-3.586.703-1.266 1.383-2.485 2.039-3.657a149.756 149.756 0 0 1 2.039-3.304 90.474 90.474 0 0 1 1.758-2.672 31.633 31.633 0 0 1 3.445-4.078 23.745 23.745 0 0 1 4.219-3.375 18.512 18.512 0 0 1 4.781-2.25c1.687-.563 3.492-.844 5.414-.844 1.359 0 2.648.164 3.867.492 1.219.281 2.227.774 3.024 1.477l-1.407 12.515a11.856 11.856 0 0 0-2.531-.421 20.392 20.392 0 0 0-2.39-.141c-3.329 0-6.235.539-8.719 1.617a23.035 23.035 0 0 0-6.61 4.43c-1.921 1.828-3.679 3.984-5.273 6.469a192.591 192.591 0 0 0-4.711 8.015v41.485h-13.359V211.92zm155.444 64.617a38.47 38.47 0 0 1-8.578 5.696 56.438 56.438 0 0 1-9.352 3.445c-3.141.844-6.164 1.406-9.07 1.688-2.86.328-5.391.492-7.594.492-6.797 0-13.125-1.196-18.984-3.586-5.86-2.438-10.969-5.86-15.329-10.266-4.312-4.406-7.71-9.703-10.195-15.89-2.437-6.235-3.656-13.172-3.656-20.813 0-5.719.703-11.062 2.109-16.031 1.407-4.969 3.375-9.492 5.907-13.57a51.841 51.841 0 0 1 9-10.899 52.518 52.518 0 0 1 11.46-8.016 56.648 56.648 0 0 1 13.29-4.992 59.194 59.194 0 0 1 14.414-1.758c3.234 0 7.125.305 11.671.915 4.547.562 9.422 1.617 14.625 3.164l-2.39 12.234-1.406.703c-5.157-2.344-9.961-3.937-14.414-4.781-4.407-.891-8.157-1.336-11.25-1.336-5.625 0-10.805 1.101-15.54 3.305-4.734 2.156-8.812 5.132-12.234 8.929-3.422 3.75-6.094 8.133-8.016 13.149-1.921 5.015-2.882 10.359-2.882 16.031 0 5.437.843 10.711 2.531 15.82 1.734 5.063 4.266 9.563 7.594 13.5 3.328 3.891 7.429 7.032 12.304 9.422 4.875 2.344 10.477 3.516 16.805 3.516 1.828 0 3.844-.117 6.047-.352 2.203-.234 4.547-.656 7.031-1.265a78.866 78.866 0 0 0 7.805-2.532c2.719-1.078 5.484-2.461 8.297-4.148v8.226zm17.862-102.726h13.359v112.641h-13.359V173.811zm35.229 38.109h13.36v47.25c0 2.578.351 4.946 1.054 7.102.75 2.109 1.758 3.937 3.024 5.484a13.755 13.755 0 0 0 4.64 3.586c1.828.844 3.844 1.266 6.047 1.266a16.51 16.51 0 0 0 5.625-.985 27.897 27.897 0 0 0 5.344-2.531 33.752 33.752 0 0 0 4.852-3.656 53.764 53.764 0 0 0 4.289-4.359V211.92h13.359v74.532h-10.406l-2.25-12.797a218.272 218.272 0 0 1-5.555 4.922 57.398 57.398 0 0 1-6.328 4.57 37.405 37.405 0 0 1-7.031 3.375 22.97 22.97 0 0 1-7.805 1.336c-3.188 0-6.141-.633-8.859-1.899-2.672-1.265-5.016-3.047-7.032-5.343-1.968-2.344-3.515-5.133-4.64-8.368-1.125-3.281-1.688-6.89-1.688-10.828v-49.5zm83.463-38.109h13.36v50.203c2.16-1.969 4.29-3.773 6.4-5.414 2.11-1.641 4.26-3.047 6.47-4.219a33.12 33.12 0 0 1 6.89-2.812c2.34-.703 4.83-1.055 7.45-1.055 4.6 0 8.7 1.008 12.31 3.023a27.94 27.94 0 0 1 9.21 7.946c2.53 3.328 4.45 7.172 5.76 11.531 1.36 4.313 2.04 8.813 2.04 13.5 0 5.719-.98 11.086-2.95 16.102-1.97 5.015-4.85 9.398-8.65 13.148-3.8 3.703-8.46 6.656-13.99 8.859-5.49 2.157-11.74 3.235-18.78 3.235-3.7 0-7.75-.352-12.16-1.055-4.36-.703-8.81-1.898-13.36-3.586V173.811zm13.36 99.703c2.81 1.266 5.63 2.203 8.44 2.813 2.86.562 5.53.843 8.01.843 4.32 0 8.09-.773 11.32-2.32 3.29-1.547 6-3.609 8.16-6.188 2.2-2.625 3.84-5.625 4.92-9s1.62-6.914 1.62-10.617c0-3.422-.47-6.75-1.41-9.984-.89-3.281-2.22-6.188-4-8.719-1.79-2.578-3.97-4.64-6.54-6.187-2.58-1.594-5.56-2.391-8.93-2.391-3 0-6.31.797-9.92 2.391-3.56 1.593-7.45 4.5-11.67 8.718v40.641z" fill="#000"/><ellipse cx="128.95" cy="74.891" rx="51.24" ry="51.801" fill="#274A04"/><ellipse cx="203.062" cy="133.71" rx="51.24" ry="51.801" fill="#274A04"/><ellipse cx="176.293" cy="222.199" rx="51.24" ry="51.801" fill="#274A04"/><ellipse cx="80.272" cy="222.199" rx="51.24" ry="51.801" fill="#274A04"/><ellipse cx="52.091" cy="133.71" rx="51.24" ry="51.801" fill="#274A04"/><ellipse cx="128.252" cy="239.811" rx="51.24" ry="51.801" transform="rotate(-180 128.252 239.811)" fill="#3B6511"/><ellipse cx="54.14" cy="179.957" rx="51.24" ry="51.801" transform="rotate(-180 54.14 179.957)" fill="#3B6511"/><ellipse cx="85.009" cy="95.612" rx="51.24" ry="51.801" transform="rotate(-180 85.009 95.612)" fill="#3B6511"/><ellipse cx="172.831" cy="95.612" rx="51.24" ry="51.801" transform="rotate(-180 172.831 95.612)" fill="#3B6511"/><ellipse cx="205.111" cy="179.957" rx="51.24" ry="51.801" transform="rotate(-180 205.111 179.957)" fill="#3B6511"/><ellipse cx="129.363" cy="94.127" rx="41.436" ry="41.89" fill="#B4D98E"/><ellipse cx="189.295" cy="142.529" rx="41.436" ry="41.89" fill="#B4D98E"/><ellipse cx="164.333" cy="210.737" rx="41.436" ry="41.89" fill="#B4D98E"/><ellipse cx="93.314" cy="210.737" rx="41.436" ry="41.89" fill="#B4D98E"/><ellipse cx="67.209" cy="142.529" rx="41.436" ry="41.89" fill="#B4D98E"/><ellipse cx="127.419" cy="204.375" rx="31.077" ry="31.417" transform="rotate(-180 127.419 204.375)" fill="#E7FAD3"/><ellipse cx="82.47" cy="168.073" rx="31.077" ry="31.417" transform="rotate(-180 82.47 168.073)" fill="#E7FAD3"/><ellipse cx="101.192" cy="116.917" rx="31.077" ry="31.417" transform="rotate(-180 101.192 116.917)" fill="#E7FAD3"/><ellipse cx="154.456" cy="116.917" rx="31.077" ry="31.417" transform="rotate(-180 154.456 116.917)" fill="#E7FAD3"/><ellipse cx="174.034" cy="168.073" rx="31.077" ry="31.417" transform="rotate(-180 174.034 168.073)" fill="#E7FAD3"/><ellipse cx="128.807" cy="120.554" rx="20.718" ry="20.945" fill="#FAFFF5"/><ellipse cx="158.774" cy="144.755" rx="20.718" ry="20.945" fill="#FAFFF5"/><ellipse cx="146.292" cy="178.859" rx="20.718" ry="20.945" fill="#FAFFF5"/><ellipse cx="110.783" cy="178.859" rx="20.718" ry="20.945" fill="#FAFFF5"/><ellipse cx="97.731" cy="144.755" rx="20.718" ry="20.945" fill="#FAFFF5"/><g filter="url(#filter0_f)"><ellipse cx="128.252" cy="154.664" rx="25.62" ry="25.9" fill="#274A04"/></g><defs><filter id="filter0_f" x="97.632" y="123.764" width="61.24" height="61.801" filterUnits="userSpaceOnUse" color-interpolation-filters="sRGB"><feFlood flood-opacity="0" result="BackgroundImageFix"/><feBlend in="SourceGraphic" in2="BackgroundImageFix" result="shape"/><feGaussianBlur stdDeviation="2.5" result="effect1_foregroundBlur"/></filter></defs></svg>