<svg width="256" height="269" fill="none" xmlns="http://www.w3.org/2000/svg"><ellipse cx="128.429" cy="51.929" rx="51.24" ry="51.801" fill="#274A04"/><ellipse cx="202.54" cy="110.748" rx="51.24" ry="51.801" fill="#274A04"/><ellipse cx="175.771" cy="199.237" rx="51.24" ry="51.801" fill="#274A04"/><ellipse cx="79.751" cy="199.237" rx="51.24" ry="51.801" fill="#274A04"/><ellipse cx="51.569" cy="110.748" rx="51.24" ry="51.801" fill="#274A04"/><ellipse cx="127.731" cy="216.849" rx="51.24" ry="51.801" transform="rotate(-180 127.731 216.849)" fill="#3B6511"/><ellipse cx="53.619" cy="156.995" rx="51.24" ry="51.801" transform="rotate(-180 53.619 156.995)" fill="#3B6511"/><ellipse cx="84.487" cy="72.65" rx="51.24" ry="51.801" transform="rotate(-180 84.487 72.65)" fill="#3B6511"/><ellipse cx="172.309" cy="72.65" rx="51.24" ry="51.801" transform="rotate(-180 172.309 72.65)" fill="#3B6511"/><ellipse cx="204.59" cy="156.995" rx="51.24" ry="51.801" transform="rotate(-180 204.59 156.995)" fill="#3B6511"/><ellipse cx="128.842" cy="71.165" rx="41.436" ry="41.89" fill="#B4D98E"/><ellipse cx="188.774" cy="119.568" rx="41.436" ry="41.89" fill="#B4D98E"/><ellipse cx="163.811" cy="187.775" rx="41.436" ry="41.89" fill="#B4D98E"/><ellipse cx="92.792" cy="187.775" rx="41.436" ry="41.89" fill="#B4D98E"/><ellipse cx="66.688" cy="119.568" rx="41.436" ry="41.89" fill="#B4D98E"/><ellipse cx="126.897" cy="181.413" rx="31.077" ry="31.417" transform="rotate(-180 126.897 181.413)" fill="#E7FAD3"/><ellipse cx="81.948" cy="145.111" rx="31.077" ry="31.417" transform="rotate(-180 81.948 145.111)" fill="#E7FAD3"/><ellipse cx="100.67" cy="93.955" rx="31.077" ry="31.417" transform="rotate(-180 100.67 93.955)" fill="#E7FAD3"/><ellipse cx="153.934" cy="93.955" rx="31.077" ry="31.417" transform="rotate(-180 153.934 93.955)" fill="#E7FAD3"/><ellipse cx="173.513" cy="145.111" rx="31.077" ry="31.417" transform="rotate(-180 173.513 145.111)" fill="#E7FAD3"/><ellipse cx="128.286" cy="97.592" rx="20.718" ry="20.945" fill="#FAFFF5"/><ellipse cx="158.252" cy="121.793" rx="20.718" ry="20.945" fill="#FAFFF5"/><ellipse cx="145.771" cy="155.897" rx="20.718" ry="20.945" fill="#FAFFF5"/><ellipse cx="110.261" cy="155.897" rx="20.718" ry="20.945" fill="#FAFFF5"/><ellipse cx="97.209" cy="121.793" rx="20.718" ry="20.945" fill="#FAFFF5"/><g filter="url(#filter0_f)"><ellipse cx="127.731" cy="131.702" rx="25.62" ry="25.9" fill="#274A04"/></g><defs><filter id="filter0_f" x="97.111" y="100.802" width="61.24" height="61.801" filterUnits="userSpaceOnUse" color-interpolation-filters="sRGB"><feFlood flood-opacity="0" result="BackgroundImageFix"/><feBlend in="SourceGraphic" in2="BackgroundImageFix" result="shape"/><feGaussianBlur stdDeviation="2.5" result="effect1_foregroundBlur"/></filter></defs></svg>