<svg width="44" height="44" viewBox="0 0 44 44" fill="none" xmlns="http://www.w3.org/2000/svg">
<path fill-rule="evenodd" clip-rule="evenodd" d="M21.585 43.17C33.5061 43.17 43.17 33.5061 43.17 21.585C43.17 9.66393 33.5061 0 21.585 0C9.66393 0 0 9.66393 0 21.585C0 33.5061 9.66393 43.17 21.585 43.17Z" fill="#578F1E"/>
<path fill-rule="evenodd" clip-rule="evenodd" d="M17.8999 14.4772C17.057 13.6343 17.057 12.2676 17.8999 11.4247C18.7429 10.5817 20.1096 10.5817 20.9525 11.4247L29.5865 20.0587C30.4295 20.9016 30.4295 22.2683 29.5865 23.1112L20.9525 31.7452C20.1096 32.5882 18.7429 32.5882 17.8999 31.7452C17.057 30.9023 17.057 29.5356 17.8999 28.6927L25.0077 21.5849L17.8999 14.4772Z" fill="#EBF9DC"/>
</svg>
